<svg xmlns="http://www.w3.org/2000/svg" xmlns:xlink="http://www.w3.org/1999/xlink" width="500" zoomAndPan="magnify" viewBox="0 0 375 374.999991" height="500" preserveAspectRatio="xMidYMid meet" version="1.0"><defs><g/></defs><rect x="-37.5" width="450" fill="#ffffff" y="-37.499999" height="449.999989" fill-opacity="1"/><rect x="-37.5" width="450" fill="#010920" y="-37.499999" height="449.999989" fill-opacity="1"/><path fill="#127dc3" d="M 91.132812 215.894531 C 68.808594 197.3125 59.882812 171.230469 71.199219 157.640625 C 75.253906 152.769531 81.359375 150.164062 88.550781 149.679688 C 77.53125 148.046875 67.890625 150.4375 62.238281 157.226562 C 50.921875 170.820312 59.847656 196.902344 82.171875 215.484375 C 96.492188 227.40625 112.851562 233.34375 125.722656 232.480469 C 114.699219 230.847656 102.296875 225.191406 91.132812 215.894531 " fill-opacity="1" fill-rule="nonzero"/><path fill="#4fbee9" d="M 145.835938 195.195312 C 146.738281 201.144531 145.714844 206.59375 142.472656 210.777344 C 133.425781 222.453125 110.550781 219.871094 91.375 205.015625 C 81.785156 197.582031 74.9375 188.488281 71.621094 179.792969 C 73.234375 190.445312 81.023438 202.714844 93.324219 212.246094 C 112.5 227.105469 135.375 229.683594 144.421875 218.011719 C 148.941406 212.175781 149.152344 203.886719 145.835938 195.195312 " fill-opacity="1" fill-rule="nonzero"/><g fill="#eef0f5" fill-opacity="1"><g transform="translate(100.037979, 188.097703)"><g><path d="M 9.0625 0 L 9.0625 -20.609375 L 1.140625 -20.609375 L 1.140625 -23.421875 L 19.90625 -23.421875 L 19.90625 -20.609375 L 12.015625 -20.609375 L 12.015625 0 Z M 9.0625 0 "/></g></g></g><g fill="#eef0f5" fill-opacity="1"><g transform="translate(126.948255, 188.097703)"><g><path d="M 8.796875 0.265625 C 6.703125 0.265625 5.0625 -0.207031 3.875 -1.15625 C 2.695312 -2.101562 2.109375 -3.390625 2.109375 -5.015625 C 2.109375 -6.597656 2.65625 -7.859375 3.75 -8.796875 C 4.84375 -9.734375 6.289062 -10.203125 8.09375 -10.203125 L 15.1875 -10.203125 L 15.1875 -10.84375 C 15.1875 -12.207031 14.765625 -13.269531 13.921875 -14.03125 C 13.078125 -14.800781 11.914062 -15.1875 10.4375 -15.1875 C 9.320312 -15.1875 8.351562 -14.9375 7.53125 -14.4375 C 6.707031 -13.9375 6.148438 -13.265625 5.859375 -12.421875 L 3.015625 -12.421875 C 3.390625 -14.085938 4.238281 -15.398438 5.5625 -16.359375 C 6.894531 -17.328125 8.507812 -17.8125 10.40625 -17.8125 C 11.925781 -17.8125 13.253906 -17.523438 14.390625 -16.953125 C 15.523438 -16.378906 16.410156 -15.582031 17.046875 -14.5625 C 17.679688 -13.550781 18 -12.378906 18 -11.046875 L 18 0 L 15.703125 0 L 15.390625 -2.40625 C 13.804688 -0.625 11.609375 0.265625 8.796875 0.265625 Z M 4.921875 -5.046875 C 4.921875 -4.203125 5.273438 -3.523438 5.984375 -3.015625 C 6.703125 -2.503906 7.675781 -2.25 8.90625 -2.25 C 10.101562 -2.25 11.171875 -2.476562 12.109375 -2.9375 C 13.046875 -3.40625 13.789062 -4.050781 14.34375 -4.875 C 14.90625 -5.707031 15.203125 -6.660156 15.234375 -7.734375 L 8.203125 -7.734375 C 7.242188 -7.734375 6.457031 -7.492188 5.84375 -7.015625 C 5.226562 -6.535156 4.921875 -5.878906 4.921875 -5.046875 Z M 4.921875 -5.046875 "/></g></g></g><g fill="#eef0f5" fill-opacity="1"><g transform="translate(153.523838, 188.097703)"><g><path d="M 3.109375 0 L 3.109375 -24.765625 L 5.921875 -24.765625 L 5.921875 0 Z M 3.109375 0 "/></g></g></g><g fill="#eef0f5" fill-opacity="1"><g transform="translate(168.385352, 188.097703)"><g><path d="M 10.640625 0.4375 C 8.898438 0.4375 7.359375 0.0507812 6.015625 -0.71875 C 4.679688 -1.488281 3.632812 -2.566406 2.875 -3.953125 C 2.113281 -5.335938 1.734375 -6.921875 1.734375 -8.703125 C 1.734375 -10.484375 2.113281 -12.0625 2.875 -13.4375 C 3.632812 -14.8125 4.6875 -15.882812 6.03125 -16.65625 C 7.382812 -17.425781 8.929688 -17.8125 10.671875 -17.8125 C 12.523438 -17.8125 14.128906 -17.375 15.484375 -16.5 C 16.847656 -15.625 17.894531 -14.421875 18.625 -12.890625 C 19.351562 -11.367188 19.679688 -9.59375 19.609375 -7.5625 L 4.578125 -7.5625 C 4.804688 -5.9375 5.46875 -4.632812 6.5625 -3.65625 C 7.65625 -2.6875 9.023438 -2.203125 10.671875 -2.203125 C 11.816406 -2.203125 12.851562 -2.445312 13.78125 -2.9375 C 14.71875 -3.4375 15.457031 -4.140625 16 -5.046875 L 19.171875 -5.046875 C 18.484375 -3.359375 17.378906 -2.019531 15.859375 -1.03125 C 14.347656 -0.0507812 12.609375 0.4375 10.640625 0.4375 Z M 4.625 -10.046875 L 16.796875 -10.046875 C 16.503906 -11.628906 15.804688 -12.875 14.703125 -13.78125 C 13.597656 -14.695312 12.253906 -15.15625 10.671875 -15.15625 C 9.066406 -15.15625 7.71875 -14.6875 6.625 -13.75 C 5.53125 -12.8125 4.863281 -11.578125 4.625 -10.046875 Z M 4.625 -10.046875 "/></g></g></g><g fill="#eef0f5" fill-opacity="1"><g transform="translate(195.496438, 188.097703)"><g><path d="M 3.109375 0 L 3.109375 -17.375 L 5.421875 -17.375 L 5.71875 -14.828125 C 6.476562 -15.878906 7.398438 -16.640625 8.484375 -17.109375 C 9.566406 -17.578125 10.6875 -17.8125 11.84375 -17.8125 C 14.164062 -17.8125 15.972656 -17.070312 17.265625 -15.59375 C 18.566406 -14.125 19.21875 -12.148438 19.21875 -9.671875 L 19.21875 0 L 16.40625 0 L 16.40625 -9.40625 C 16.40625 -11.164062 15.960938 -12.554688 15.078125 -13.578125 C 14.191406 -14.609375 12.992188 -15.125 11.484375 -15.125 C 10.410156 -15.125 9.453125 -14.863281 8.609375 -14.34375 C 7.773438 -13.820312 7.117188 -13.078125 6.640625 -12.109375 C 6.160156 -11.148438 5.921875 -10.035156 5.921875 -8.765625 L 5.921875 0 Z M 3.109375 0 "/></g></g></g><g fill="#eef0f5" fill-opacity="1"><g transform="translate(223.310363, 188.097703)"><g><path d="M 10.609375 0 C 8.691406 0 7.203125 -0.546875 6.140625 -1.640625 C 5.078125 -2.734375 4.546875 -4.273438 4.546875 -6.265625 L 4.546875 -14.796875 L 0.90625 -14.796875 L 0.90625 -17.375 L 2.640625 -17.375 C 3.441406 -17.375 4 -17.503906 4.3125 -17.765625 C 4.625 -18.035156 4.828125 -18.5625 4.921875 -19.34375 L 5.1875 -21.6875 L 7.359375 -21.6875 L 7.359375 -17.375 L 12.984375 -17.375 L 12.984375 -14.796875 L 7.359375 -14.796875 L 7.359375 -6.390625 C 7.359375 -3.941406 8.488281 -2.71875 10.75 -2.71875 L 13.21875 -2.71875 L 13.21875 0 Z M 10.609375 0 "/></g></g></g><g fill="#eef0f5" fill-opacity="1"><g transform="translate(243.995444, 188.097703)"><g><path d="M 3.109375 0 L 3.109375 -17.375 L 5.921875 -17.375 L 5.921875 0 Z M 2.25 -22.421875 C 2.25 -23.066406 2.453125 -23.597656 2.859375 -24.015625 C 3.273438 -24.429688 3.828125 -24.640625 4.515625 -24.640625 C 5.210938 -24.640625 5.757812 -24.429688 6.15625 -24.015625 C 6.5625 -23.597656 6.765625 -23.066406 6.765625 -22.421875 C 6.765625 -21.796875 6.5625 -21.273438 6.15625 -20.859375 C 5.757812 -20.453125 5.210938 -20.25 4.515625 -20.25 C 3.828125 -20.25 3.273438 -20.453125 2.859375 -20.859375 C 2.453125 -21.273438 2.25 -21.796875 2.25 -22.421875 Z M 2.25 -22.421875 "/></g></g></g><g fill="#eef0f5" fill-opacity="1"><g transform="translate(258.856957, 188.097703)"><g><path d="M 10.671875 0.4375 C 8.929688 0.4375 7.390625 0.046875 6.046875 -0.734375 C 4.710938 -1.515625 3.660156 -2.597656 2.890625 -3.984375 C 2.117188 -5.367188 1.734375 -6.941406 1.734375 -8.703125 C 1.734375 -10.460938 2.117188 -12.03125 2.890625 -13.40625 C 3.660156 -14.78125 4.710938 -15.859375 6.046875 -16.640625 C 7.390625 -17.421875 8.929688 -17.8125 10.671875 -17.8125 C 12.128906 -17.8125 13.457031 -17.535156 14.65625 -16.984375 C 15.863281 -16.441406 16.878906 -15.679688 17.703125 -14.703125 C 18.523438 -13.734375 19.082031 -12.59375 19.375 -11.28125 L 16.53125 -11.28125 C 16.019531 -12.488281 15.242188 -13.429688 14.203125 -14.109375 C 13.171875 -14.785156 11.992188 -15.125 10.671875 -15.125 C 9.492188 -15.125 8.441406 -14.847656 7.515625 -14.296875 C 6.585938 -13.753906 5.859375 -13 5.328125 -12.03125 C 4.804688 -11.0625 4.546875 -9.953125 4.546875 -8.703125 C 4.546875 -7.453125 4.804688 -6.34375 5.328125 -5.375 C 5.859375 -4.40625 6.585938 -3.644531 7.515625 -3.09375 C 8.441406 -2.550781 9.492188 -2.28125 10.671875 -2.28125 C 12.078125 -2.28125 13.3125 -2.648438 14.375 -3.390625 C 15.4375 -4.140625 16.175781 -5.140625 16.59375 -6.390625 L 19.578125 -6.390625 C 18.992188 -4.296875 17.910156 -2.632812 16.328125 -1.40625 C 14.742188 -0.175781 12.859375 0.4375 10.671875 0.4375 Z M 10.671875 0.4375 "/></g></g></g><g fill="#8fd8ff" fill-opacity="1"><g transform="translate(155.241688, 212.909604)"><g><path d="M 3.453125 0 L 0.265625 -9.84375 L 1.5625 -9.84375 L 2.921875 -5.59375 L 4.078125 -1.984375 L 6.984375 -9.84375 L 8.15625 -9.84375 L 11.0625 -1.96875 L 13.59375 -9.84375 L 14.890625 -9.84375 L 11.6875 0 L 10.53125 0 L 9.203125 -3.578125 L 7.5625 -7.96875 L 4.609375 0 Z M 3.453125 0 "/></g></g></g><g fill="#8fd8ff" fill-opacity="1"><g transform="translate(174.53797, 212.909604)"><g><path d="M 5.90625 0.1875 C 4.914062 0.1875 4.035156 -0.03125 3.265625 -0.46875 C 2.492188 -0.90625 1.890625 -1.507812 1.453125 -2.28125 C 1.023438 -3.050781 0.8125 -3.929688 0.8125 -4.921875 C 0.8125 -5.921875 1.023438 -6.800781 1.453125 -7.5625 C 1.890625 -8.332031 2.492188 -8.9375 3.265625 -9.375 C 4.035156 -9.8125 4.914062 -10.03125 5.90625 -10.03125 C 6.90625 -10.03125 7.785156 -9.8125 8.546875 -9.375 C 9.316406 -8.9375 9.921875 -8.332031 10.359375 -7.5625 C 10.796875 -6.800781 11.015625 -5.921875 11.015625 -4.921875 C 11.015625 -3.929688 10.796875 -3.050781 10.359375 -2.28125 C 9.921875 -1.507812 9.316406 -0.90625 8.546875 -0.46875 C 7.785156 -0.03125 6.90625 0.1875 5.90625 0.1875 Z M 2.078125 -4.921875 C 2.078125 -4.160156 2.238281 -3.488281 2.5625 -2.90625 C 2.882812 -2.320312 3.332031 -1.863281 3.90625 -1.53125 C 4.488281 -1.207031 5.15625 -1.046875 5.90625 -1.046875 C 6.664062 -1.046875 7.332031 -1.207031 7.90625 -1.53125 C 8.476562 -1.863281 8.925781 -2.320312 9.25 -2.90625 C 9.570312 -3.488281 9.734375 -4.160156 9.734375 -4.921875 C 9.734375 -5.691406 9.570312 -6.363281 9.25 -6.9375 C 8.925781 -7.507812 8.476562 -7.957031 7.90625 -8.28125 C 7.332031 -8.613281 6.664062 -8.78125 5.90625 -8.78125 C 5.15625 -8.78125 4.488281 -8.613281 3.90625 -8.28125 C 3.332031 -7.957031 2.882812 -7.507812 2.5625 -6.9375 C 2.238281 -6.363281 2.078125 -5.691406 2.078125 -4.921875 Z M 2.078125 -4.921875 "/></g></g></g><g fill="#8fd8ff" fill-opacity="1"><g transform="translate(190.487382, 212.909604)"><g><path d="M 1.4375 0 L 1.4375 -9.84375 L 5.1875 -9.84375 C 5.875 -9.84375 6.46875 -9.710938 6.96875 -9.453125 C 7.476562 -9.191406 7.875 -8.828125 8.15625 -8.359375 C 8.4375 -7.890625 8.578125 -7.328125 8.578125 -6.671875 C 8.578125 -5.878906 8.367188 -5.222656 7.953125 -4.703125 C 7.546875 -4.179688 6.976562 -3.832031 6.25 -3.65625 L 8.734375 0 L 7.234375 0 L 4.84375 -3.53125 L 2.671875 -3.53125 L 2.671875 0 Z M 2.671875 -4.703125 L 5.046875 -4.703125 C 5.765625 -4.703125 6.320312 -4.875 6.71875 -5.21875 C 7.113281 -5.5625 7.3125 -6.046875 7.3125 -6.671875 C 7.3125 -7.304688 7.113281 -7.796875 6.71875 -8.140625 C 6.320312 -8.484375 5.765625 -8.65625 5.046875 -8.65625 L 2.671875 -8.65625 Z M 2.671875 -4.703125 "/></g></g></g><g fill="#8fd8ff" fill-opacity="1"><g transform="translate(204.200871, 212.909604)"><g><path d="M 1.4375 0 L 1.4375 -9.84375 L 2.671875 -9.84375 L 2.671875 -1.1875 L 7.453125 -1.1875 L 7.453125 0 Z M 1.4375 0 "/></g></g></g><g fill="#8fd8ff" fill-opacity="1"><g transform="translate(216.22686, 212.909604)"><g><path d="M 1.4375 0 L 1.4375 -9.84375 L 4.84375 -9.84375 C 5.851562 -9.84375 6.734375 -9.632812 7.484375 -9.21875 C 8.242188 -8.800781 8.832031 -8.222656 9.25 -7.484375 C 9.675781 -6.753906 9.890625 -5.898438 9.890625 -4.921875 C 9.890625 -3.953125 9.675781 -3.097656 9.25 -2.359375 C 8.832031 -1.617188 8.242188 -1.039062 7.484375 -0.625 C 6.734375 -0.207031 5.851562 0 4.84375 0 Z M 2.671875 -1.1875 L 4.84375 -1.1875 C 5.59375 -1.1875 6.25 -1.34375 6.8125 -1.65625 C 7.375 -1.96875 7.816406 -2.40625 8.140625 -2.96875 C 8.460938 -3.53125 8.625 -4.179688 8.625 -4.921875 C 8.625 -5.671875 8.460938 -6.320312 8.140625 -6.875 C 7.816406 -7.4375 7.367188 -7.875 6.796875 -8.1875 C 6.222656 -8.5 5.550781 -8.65625 4.78125 -8.65625 L 2.671875 -8.65625 Z M 2.671875 -1.1875 "/></g></g></g><g fill="#8fd8ff" fill-opacity="1"><g transform="translate(231.065336, 212.909604)"><g/></g></g><g fill="#8fd8ff" fill-opacity="1"><g transform="translate(238.689779, 212.909604)"><g><path d="M 5.90625 0.1875 C 4.914062 0.1875 4.035156 -0.03125 3.265625 -0.46875 C 2.492188 -0.90625 1.890625 -1.507812 1.453125 -2.28125 C 1.023438 -3.050781 0.8125 -3.929688 0.8125 -4.921875 C 0.8125 -5.921875 1.023438 -6.800781 1.453125 -7.5625 C 1.890625 -8.332031 2.492188 -8.9375 3.265625 -9.375 C 4.035156 -9.8125 4.914062 -10.03125 5.90625 -10.03125 C 6.90625 -10.03125 7.785156 -9.8125 8.546875 -9.375 C 9.316406 -8.9375 9.921875 -8.332031 10.359375 -7.5625 C 10.796875 -6.800781 11.015625 -5.921875 11.015625 -4.921875 C 11.015625 -3.929688 10.796875 -3.050781 10.359375 -2.28125 C 9.921875 -1.507812 9.316406 -0.90625 8.546875 -0.46875 C 7.785156 -0.03125 6.90625 0.1875 5.90625 0.1875 Z M 2.078125 -4.921875 C 2.078125 -4.160156 2.238281 -3.488281 2.5625 -2.90625 C 2.882812 -2.320312 3.332031 -1.863281 3.90625 -1.53125 C 4.488281 -1.207031 5.15625 -1.046875 5.90625 -1.046875 C 6.664062 -1.046875 7.332031 -1.207031 7.90625 -1.53125 C 8.476562 -1.863281 8.925781 -2.320312 9.25 -2.90625 C 9.570312 -3.488281 9.734375 -4.160156 9.734375 -4.921875 C 9.734375 -5.691406 9.570312 -6.363281 9.25 -6.9375 C 8.925781 -7.507812 8.476562 -7.957031 7.90625 -8.28125 C 7.332031 -8.613281 6.664062 -8.78125 5.90625 -8.78125 C 5.15625 -8.78125 4.488281 -8.613281 3.90625 -8.28125 C 3.332031 -7.957031 2.882812 -7.507812 2.5625 -6.9375 C 2.238281 -6.363281 2.078125 -5.691406 2.078125 -4.921875 Z M 2.078125 -4.921875 "/></g></g></g><g fill="#8fd8ff" fill-opacity="1"><g transform="translate(254.639191, 212.909604)"><g><path d="M 1.4375 0 L 1.4375 -9.84375 L 7.078125 -9.84375 L 7.078125 -8.6875 L 2.671875 -8.6875 L 2.671875 -5.28125 L 6.703125 -5.28125 L 6.703125 -4.140625 L 2.671875 -4.140625 L 2.671875 0 Z M 1.4375 0 "/></g></g></g><g fill="#8fd8ff" fill-opacity="1"><g transform="translate(155.241688, 232.409603)"><g><path d="M 3.8125 0 L 3.8125 -8.65625 L 0.484375 -8.65625 L 0.484375 -9.84375 L 8.359375 -9.84375 L 8.359375 -8.65625 L 5.046875 -8.65625 L 5.046875 0 Z M 3.8125 0 "/></g></g></g><g fill="#8fd8ff" fill-opacity="1"><g transform="translate(168.237987, 232.409603)"><g><path d="M 0.234375 0 L 4.28125 -9.84375 L 5.4375 -9.84375 L 9.484375 0 L 8.1875 0 L 7.25 -2.234375 L 2.453125 -2.234375 L 1.5625 0 Z M 2.9375 -3.390625 L 6.796875 -3.390625 L 4.859375 -8.109375 Z M 2.9375 -3.390625 "/></g></g></g><g fill="#8fd8ff" fill-opacity="1"><g transform="translate(182.106154, 232.409603)"><g><path d="M 1.4375 0 L 1.4375 -9.84375 L 2.671875 -9.84375 L 2.671875 -1.1875 L 7.453125 -1.1875 L 7.453125 0 Z M 1.4375 0 "/></g></g></g><g fill="#8fd8ff" fill-opacity="1"><g transform="translate(194.132143, 232.409603)"><g><path d="M 1.4375 0 L 1.4375 -9.84375 L 7.40625 -9.84375 L 7.40625 -8.6875 L 2.671875 -8.6875 L 2.671875 -5.578125 L 7.0625 -5.578125 L 7.0625 -4.4375 L 2.671875 -4.4375 L 2.671875 -1.15625 L 7.5625 -1.15625 L 7.5625 0 Z M 1.4375 0 "/></g></g></g><g fill="#8fd8ff" fill-opacity="1"><g transform="translate(206.748762, 232.409603)"><g><path d="M 1.4375 0 L 1.4375 -9.84375 L 2.59375 -9.84375 L 8.046875 -2.140625 L 8.046875 -9.84375 L 9.25 -9.84375 L 9.25 0 L 8.09375 0 L 2.65625 -7.703125 L 2.65625 0 Z M 1.4375 0 "/></g></g></g><g fill="#8fd8ff" fill-opacity="1"><g transform="translate(221.573186, 232.409603)"><g><path d="M 3.8125 0 L 3.8125 -8.65625 L 0.484375 -8.65625 L 0.484375 -9.84375 L 8.359375 -9.84375 L 8.359375 -8.65625 L 5.046875 -8.65625 L 5.046875 0 Z M 3.8125 0 "/></g></g></g><g fill="#8fd8ff" fill-opacity="1"><g transform="translate(234.569485, 232.409603)"><g><path d="M 4.703125 0.1875 C 3.921875 0.1875 3.238281 0.0507812 2.65625 -0.21875 C 2.082031 -0.488281 1.640625 -0.863281 1.328125 -1.34375 C 1.015625 -1.820312 0.851562 -2.378906 0.84375 -3.015625 L 2.078125 -3.015625 C 2.097656 -2.390625 2.347656 -1.894531 2.828125 -1.53125 C 3.316406 -1.175781 3.941406 -1 4.703125 -1 C 5.398438 -1 5.953125 -1.132812 6.359375 -1.40625 C 6.765625 -1.675781 6.96875 -2.054688 6.96875 -2.546875 C 6.96875 -3.003906 6.769531 -3.367188 6.375 -3.640625 C 5.988281 -3.921875 5.347656 -4.164062 4.453125 -4.375 C 3.242188 -4.664062 2.359375 -5.035156 1.796875 -5.484375 C 1.234375 -5.941406 0.953125 -6.550781 0.953125 -7.3125 C 0.953125 -8.144531 1.269531 -8.804688 1.90625 -9.296875 C 2.539062 -9.785156 3.394531 -10.03125 4.46875 -10.03125 C 5.570312 -10.03125 6.445312 -9.75 7.09375 -9.1875 C 7.738281 -8.632812 8.066406 -7.882812 8.078125 -6.9375 L 6.84375 -6.9375 C 6.832031 -7.519531 6.613281 -7.984375 6.1875 -8.328125 C 5.757812 -8.671875 5.1875 -8.84375 4.46875 -8.84375 C 3.769531 -8.84375 3.21875 -8.703125 2.8125 -8.421875 C 2.414062 -8.148438 2.21875 -7.78125 2.21875 -7.3125 C 2.21875 -6.90625 2.398438 -6.5625 2.765625 -6.28125 C 3.140625 -6.007812 3.804688 -5.757812 4.765625 -5.53125 C 6.023438 -5.21875 6.921875 -4.828125 7.453125 -4.359375 C 7.984375 -3.898438 8.25 -3.3125 8.25 -2.59375 C 8.25 -1.738281 7.925781 -1.0625 7.28125 -0.5625 C 6.644531 -0.0625 5.785156 0.1875 4.703125 0.1875 Z M 4.703125 0.1875 "/></g></g></g></svg>